<svg id="svg" xmlns="http://www.w3.org/2000/svg" xmlns:xlink="http://www.w3.org/1999/xlink" width="400" height="400" viewBox="0, 0, 400,400"><g id="svgg"><path id="path0" d="M190.200 166.650 L 190.200 321.100 141.300 272.200 L 92.400 223.301 85.563 230.137 L 78.726 236.974 132.404 290.837 C 161.927 320.462,189.146 347.785,192.891 351.555 C 196.636 355.325,199.790 358.385,199.900 358.355 C 200.194 358.274,321.000 237.295,321.000 237.080 C 321.000 236.980,317.940 233.839,314.200 230.100 L 307.399 223.301 258.500 272.200 L 209.600 321.100 209.600 166.650 L 209.600 12.200 199.900 12.200 L 190.200 12.200 190.200 166.650 M28.200 317.400 L 28.200 387.800 200.000 387.800 L 371.800 387.800 371.800 317.400 L 371.800 247.000 362.200 247.000 L 352.600 247.000 352.600 307.800 L 352.600 368.600 200.000 368.600 L 47.400 368.600 47.400 307.800 L 47.400 247.000 37.800 247.000 L 28.200 247.000 28.200 317.400 " stroke="none" fill="#000000" fill-rule="evenodd"></path></g></svg>